<?xml version="1.0" standalone="no"?>
<!DOCTYPE svg PUBLIC "-//W3C//DTD SVG 20010904//EN"
 "http://www.w3.org/TR/2001/REC-SVG-20010904/DTD/svg10.dtd">
<svg version="1.0" xmlns="http://www.w3.org/2000/svg"
 width="200.000000pt" height="200.000000pt" viewBox="0 0 200.000000 200.000000"
 preserveAspectRatio="xMidYMid meet">
<metadata>
Created by potrace 1.14, written by Peter Selinger 2001-2017
</metadata>
<g transform="translate(0.000000,200.000000) scale(0.100000,-0.100000)"
fill="#000000" stroke="none">
<path d="M931 1346 c-58 -58 -64 -69 -68 -113 -4 -40 0 -59 20 -99 l26 -49 1
53 c0 30 7 69 16 88 17 35 69 74 98 74 29 0 29 29 2 70 -14 22 -27 40 -29 40
-1 0 -31 -29 -66 -64z"/>
<path d="M1090 1264 c-19 -31 -66 -86 -105 -122 l-70 -65 51 5 c113 11 174 74
174 181 0 31 -3 57 -7 57 -5 0 -24 -25 -43 -56z"/>
<path d="M783 993 c-7 -2 -13 -16 -13 -29 0 -19 8 -28 30 -35 17 -6 30 -15 30
-19 0 -16 -21 -23 -33 -11 -6 6 -17 11 -24 11 -18 0 -4 -28 18 -35 58 -19 83
42 29 70 -31 16 -40 35 -17 35 7 0 18 -5 25 -12 17 -17 28 -2 12 17 -12 15
-34 18 -57 8z"/>
<path d="M879 944 c-12 -15 -10 -16 19 -10 20 5 32 4 32 -3 0 -5 -12 -11 -27
-13 -20 -2 -28 -9 -28 -23 0 -17 7 -20 40 -20 33 1 41 5 43 22 8 52 -48 85
-79 47z m46 -44 c-3 -5 -10 -10 -16 -10 -5 0 -9 5 -9 10 0 6 7 10 16 10 8 0
12 -4 9 -10z"/>
<path d="M986 948 c-3 -7 -7 -32 -9 -55 -6 -50 10 -68 49 -59 34 9 30 47 -6
57 l-25 6 24 4 c17 3 27 13 32 32 7 26 6 27 -27 27 -19 0 -36 -6 -38 -12z m44
-18 c0 -5 -7 -10 -15 -10 -8 0 -15 5 -15 10 0 6 7 10 15 10 8 0 15 -4 15 -10z
m0 -70 c0 -5 -6 -10 -14 -10 -8 0 -18 5 -21 10 -3 6 3 10 14 10 12 0 21 -4 21
-10z"/>
<path d="M1087 953 c-15 -14 -6 -23 18 -17 15 4 25 2 25 -5 0 -6 -11 -11 -24
-11 -27 0 -41 -23 -23 -39 7 -5 27 -9 45 -9 29 1 32 4 32 33 0 17 -5 36 -12
43 -13 13 -50 16 -61 5z m43 -53 c0 -5 -7 -10 -15 -10 -8 0 -15 5 -15 10 0 6
7 10 15 10 8 0 15 -4 15 -10z"/>
<path d="M1180 913 c0 -23 5 -43 10 -43 6 0 10 9 10 19 0 30 11 51 26 51 8 0
14 4 14 9 0 5 -13 9 -30 9 -29 -1 -30 -3 -30 -45z"/>
<path d="M736 798 c-21 -29 -20 -51 2 -78 23 -28 70 -30 89 -4 10 14 10 20 2
23 -6 2 -15 -2 -19 -9 -4 -6 -18 -10 -31 -8 -20 2 -24 9 -24 38 0 31 3 35 28
38 15 2 27 -1 27 -7 0 -6 7 -11 15 -11 13 0 14 4 5 20 -15 29 -74 27 -94 -2z"/>
<path d="M860 760 c0 -63 16 -84 22 -27 2 20 8 32 18 32 10 0 16 -12 18 -32 2
-22 9 -33 19 -33 12 0 14 8 10 37 -7 40 -23 55 -49 47 -13 -4 -18 0 -18 15 0
12 -4 21 -10 21 -6 0 -10 -27 -10 -60z"/>
<path d="M1250 800 c0 -17 -5 -19 -24 -14 -19 4 -28 0 -41 -19 -25 -39 -6 -67
45 -67 l40 0 0 60 c0 33 -4 60 -10 60 -5 0 -10 -9 -10 -20z m-10 -45 c15 -18
5 -35 -21 -35 -12 0 -19 7 -19 18 0 33 20 42 40 17z"/>
<path d="M983 783 c-24 -9 -13 -23 12 -17 15 4 25 2 25 -5 0 -6 -8 -11 -19
-11 -10 0 -25 -7 -32 -16 -11 -14 -10 -18 5 -30 12 -8 25 -10 35 -5 9 5 22 6
29 4 18 -7 15 52 -4 71 -16 16 -29 19 -51 9z m32 -63 c-3 -5 -10 -10 -16 -10
-5 0 -9 5 -9 10 0 6 7 10 16 10 8 0 12 -4 9 -10z"/>
<path d="M1093 783 c-19 -4 -23 -11 -23 -44 0 -47 17 -52 22 -7 2 22 9 34 21
36 14 3 17 -4 17 -32 0 -25 4 -36 15 -36 20 0 20 54 -1 74 -8 9 -18 15 -22 15
-4 -1 -17 -4 -29 -6z"/>
</g>
</svg>
